<svg width="100" height="100" viewBox="0 0 100 100" fill="none" xmlns="http://www.w3.org/2000/svg">
  <!-- Background -->
  <rect width="100" height="100" fill="#000000"/>
  
  <!-- Impossible Cube Frame -->
  <path d="M20 20 L80 20 L80 80 L20 80 Z M20 20 L20 80 M80 20 L80 80" 
        stroke="#E5E5E5" stroke-width="3" fill="none"/>
  
  <!-- Inner cube lines creating impossible geometry -->
  <path d="M20 20 L50 10 L80 20 M20 50 L50 40 L80 50 M20 80 L50 70 L80 80" 
        stroke="#FF6B35" stroke-width="3" fill="none"/>
  
  <!-- Vertical connector -->
  <path d="M50 10 L50 70" stroke="#FF6B35" stroke-width="3"/>
  
  <!-- Orange internal beams -->
  <rect x="45" y="35" width="10" height="4" fill="#FF6B35"/>
  <rect x="47" y="33" width="6" height="8" fill="#FF6B35"/>
  <rect x="46" y="37" width="8" height="2" fill="#FF6B35"/>
  
  <!-- Additional impossible geometry lines -->
  <path d="M20 20 L50 10 M20 50 L50 40 M20 80 L50 70" 
        stroke="#FF6B35" stroke-width="2" fill="none"/>
</svg>
